<svg width="100%" height="64" viewBox="0 0 64 64" fill="none" xmlns="http://www.w3.org/2000/svg">
<rect width="64" height="64" rx="12" fill="url(#paint0_linear_6326_87)"/>
<path d="M28.667 33.6667C29.3828 34.6236 30.2959 35.4153 31.3446 35.9883C32.3932 36.5612 33.5528 36.9019 34.7447 36.9872C35.9367 37.0726 37.133 36.9006 38.2526 36.483C39.3722 36.0654 40.3889 35.4118 41.2337 34.5667L46.2337 29.5667C47.7517 27.995 48.5916 25.89 48.5726 23.705C48.5536 21.52 47.6772 19.4299 46.1322 17.8849C44.5871 16.3398 42.497 15.4634 40.312 15.4444C38.127 15.4254 36.022 16.2654 34.4503 17.7834L31.5837 20.6334M35.3337 30.3334C34.6179 29.3765 33.7047 28.5847 32.6561 28.0118C31.6074 27.4389 30.4478 27.0982 29.2559 27.0128C28.064 26.9274 26.8677 27.0994 25.7481 27.5171C24.6285 27.9347 23.6118 28.5882 22.767 29.4334L17.767 34.4334C16.249 36.005 15.4091 38.1101 15.428 40.295C15.447 42.48 16.3234 44.5701 17.8685 46.1152C19.4136 47.6602 21.5037 48.5367 23.6887 48.5556C25.8736 48.5746 27.9786 47.7347 29.5503 46.2167L32.4003 43.3667" stroke="white" stroke-width="2" stroke-linecap="round" stroke-linejoin="round"/>
<defs>
<linearGradient id="paint0_linear_6326_87" x1="0" y1="32" x2="64" y2="32" gradientUnits="userSpaceOnUse">
<stop stop-color="#7E4ED7"/>
<stop offset="1" stop-color="#3888FF"/>
</linearGradient>
</defs>
</svg>
